<svg width="1215" height="756" viewBox="0 0 123 80" fill="none" xmlns="http://www.w3.org/2000/svg">
  <style>
    #waveform {
      fill: black;
      clip-path: inset(0 100% 0 0);
      animation: fillWave 2.5s linear forwards;
    }

    #right_o {
      opacity: 0%;
      animation: showO .3s linear forwards;
      animation-delay: 2.5s;
    }

    @keyframes fillWave {
      from {
        clip-path: inset(0 100% 0 0);
      }
      to {
        clip-path: inset(0 0 0 0);
      }
    }

    @keyframes showO {
      from {
        opacity: 0%;
      }
      to {
        opacity: 100%;
      }
    }
  </style>

<path d="M111.415 39.8496C112.159 39.8496 112.902 39.9064 113.646 40.0195H113.645C114.41 40.1175 115.098 40.3298 115.707 40.6582H115.708C116.323 40.9741 116.822 41.4244 117.204 42.0059L117.341 42.2363C117.637 42.7945 117.781 43.4922 117.781 44.3203C117.781 45.3104 117.5 46.1465 116.93 46.8174L116.929 46.8164C116.471 47.357 115.888 47.7661 115.183 48.0498C115.577 48.142 115.943 48.2773 116.28 48.457L116.457 48.5479C116.86 48.7665 117.208 49.0424 117.499 49.376H117.5C117.851 49.7436 118.117 50.1784 118.3 50.6768L118.364 50.8643C118.504 51.3066 118.573 51.7733 118.573 52.2637C118.573 53.1811 118.376 53.9633 117.974 54.6006L117.973 54.6016C117.626 55.1362 117.191 55.5829 116.667 55.9404L116.437 56.0879C115.89 56.4184 115.283 56.6669 114.615 56.833L114.326 56.8984C113.564 57.0606 112.802 57.1416 112.039 57.1416H104.929V39.8496H111.415ZM108.973 53.6738H112.184C112.46 53.6738 112.737 53.6437 113.015 53.582L113.017 53.5811L113.226 53.5273C113.428 53.4654 113.613 53.379 113.78 53.2676L113.937 53.1494C114.085 53.0229 114.209 52.8713 114.309 52.6943L114.312 52.6885L114.362 52.6006C114.472 52.3894 114.529 52.1348 114.529 51.832C114.529 51.4587 114.432 51.1769 114.254 50.9707L114.247 50.9619C114.115 50.7863 113.955 50.6434 113.765 50.5332L113.564 50.4346C113.346 50.3427 113.115 50.2718 112.869 50.2227L112.619 50.1807C112.273 50.1334 111.951 50.1104 111.655 50.1104H108.973V53.6738ZM108.973 46.6416H111.535C111.812 46.6416 112.08 46.6111 112.341 46.5498H112.343L112.541 46.4971C112.733 46.4378 112.906 46.3578 113.062 46.2578C113.264 46.128 113.423 45.9552 113.539 45.7373L113.542 45.7305L113.627 45.5625C113.7 45.3851 113.737 45.1799 113.737 44.9443C113.737 44.6149 113.663 44.3593 113.525 44.167L113.519 44.1572C113.421 43.9943 113.3 43.8608 113.154 43.7559L113.001 43.6602C112.778 43.541 112.521 43.4578 112.231 43.4121L112.225 43.4111C111.93 43.3491 111.644 43.3184 111.367 43.3184H108.973V46.6416Z" fill="black" stroke="black" stroke-width="0.3"/>
<path d="M93.6172 39.8496L93.6562 39.9404L101.049 56.9326L101.14 57.1416H96.5859L96.5479 57.0488L95.1221 53.542H88.7256L87.3467 57.0469L87.3096 57.1416H82.8506L82.9414 56.9326L90.2852 39.9404L90.3242 39.8496H93.6172ZM90.0186 50.0742H93.7305L91.8633 45.3535L90.0186 50.0742Z" fill="black" stroke="black" stroke-width="0.3"/>
<path d="M62.2471 39.8496C62.7371 39.8496 63.2424 39.8985 63.7627 39.9961L63.7617 39.9971C64.2983 40.0787 64.819 40.2161 65.3232 40.4111H65.3242C65.8479 40.6075 66.3466 40.8696 66.8203 41.1963L66.9971 41.3232C67.4032 41.627 67.771 41.9869 68.1006 42.4023L68.1924 42.5186L68.0781 42.6123L65.1982 44.9639L65.082 45.0586L64.9873 44.9434C64.6346 44.514 64.1978 44.1839 63.6748 43.9531L63.6729 43.9521C63.1681 43.7228 62.5737 43.6064 61.8867 43.6064C61.2028 43.6065 60.568 43.7382 59.9805 44.001L59.9795 44C59.4788 44.2303 59.0317 44.5447 58.6367 44.9414L58.4707 45.1162C58.0531 45.5802 57.7178 46.1386 57.4678 46.7939L57.4688 46.7949C57.2352 47.4491 57.1172 48.1595 57.1172 48.9277C57.1172 49.7108 57.2343 50.4283 57.4668 51.0811L57.5645 51.3184C57.8016 51.8609 58.104 52.3423 58.4707 52.7637L58.6309 52.9336C59.0121 53.3182 59.4462 53.6251 59.9336 53.8555L60.1504 53.9482C60.659 54.1493 61.198 54.25 61.7676 54.25C62.5139 54.2499 63.1684 54.0945 63.7354 53.7881L63.9443 53.667C64.4212 53.3705 64.8219 52.9799 65.1465 52.4932L65.2344 52.3613L65.3604 52.4561L68.4805 54.7842L68.5986 54.8721L68.5127 54.9912C67.8234 55.9562 66.9607 56.6866 65.9248 57.1787L65.7148 57.2734C64.5926 57.7614 63.4363 58.0059 62.2471 58.0059C61.0714 58.0059 59.9737 57.845 58.9551 57.5215L58.5225 57.373C57.3851 56.9506 56.3998 56.3479 55.5684 55.5654L55.5674 55.5645C54.7358 54.7655 54.0847 53.8034 53.6133 52.6816L53.6123 52.6807C53.1561 51.5564 52.9287 50.3044 52.9287 48.9277C52.9287 47.5513 53.1561 46.3 53.6123 45.1758L53.6133 45.1738L53.7979 44.7607C54.2499 43.8159 54.8401 42.9998 55.5684 42.3145C56.3996 41.5161 57.385 40.9059 58.5225 40.4834L58.9551 40.335C59.9737 40.0115 61.0713 39.8496 62.2471 39.8496Z" fill="black" stroke="black" stroke-width="0.3"/>
<path d="M37.251 39.8496L37.2949 39.9219L44.2891 51.3525V39.8496H48.333V57.1416H43.2031L43.1592 57.0703L35.9727 45.3486V57.1416H31.9287V39.8496H37.251Z" fill="black" stroke="black" stroke-width="0.3"/>
<path d="M11.1113 38.8496C12.0856 38.8496 13.0281 38.9883 13.9385 39.2646L14.2783 39.3779C15.0612 39.6628 15.7752 40.0918 16.4189 40.6641L16.5322 40.7646L16.4297 40.877L13.8613 43.6855L13.7432 43.8154L13.6338 43.6768C13.3504 43.3188 12.96 43.0548 12.4561 42.8867L12.4502 42.8848C11.9521 42.698 11.4821 42.6064 11.0391 42.6064C10.7789 42.6064 10.5096 42.6364 10.2314 42.6982C9.95785 42.7591 9.70007 42.8584 9.45703 42.9951L9.4502 42.998C9.27384 43.0862 9.12346 43.1985 8.99805 43.335L8.88086 43.4795C8.74202 43.674 8.66895 43.9142 8.66895 44.208C8.66895 44.6763 8.8413 45.0206 9.18164 45.2617L9.3252 45.3584C9.66924 45.5792 10.0881 45.7725 10.583 45.9375H10.582C11.172 46.1288 11.8024 46.3202 12.4727 46.5117L12.7266 46.5889C13.3142 46.7776 13.865 47.029 14.3789 47.3428H14.3799C14.9922 47.7068 15.4964 48.1958 15.8926 48.8066L16.0352 49.0498C16.3437 49.6394 16.4931 50.3804 16.4932 51.2637C16.4932 52.1061 16.3556 52.8608 16.0771 53.5244L15.9492 53.8027C15.5876 54.5261 15.0929 55.1273 14.4668 55.6055L14.4678 55.6064C13.8588 56.0837 13.144 56.4344 12.3271 56.6631L12.3281 56.6641C11.5297 56.8922 10.6838 57.0059 9.79102 57.0059C8.81155 57.0059 7.89206 56.8752 7.0332 56.6133L6.66895 56.4932C5.70396 56.1497 4.80679 55.5943 3.97754 54.8301L3.86816 54.7295L3.96777 54.6191L6.63184 51.6914L6.75391 51.5566L6.86328 51.7021C7.23226 52.1941 7.69273 52.578 8.24609 52.8555L8.46094 52.9482C8.96551 53.1498 9.48056 53.25 10.0068 53.25C10.2984 53.25 10.5905 53.2194 10.8828 53.1582L11.1055 53.0947C11.3207 53.0259 11.5127 52.9412 11.6816 52.8398L11.6855 52.8369L11.8525 52.7305C12.0095 52.6176 12.1363 52.486 12.2334 52.335L12.2373 52.3291L12.3291 52.1748C12.4084 52.0138 12.4492 51.8311 12.4492 51.624C12.4492 51.2165 12.3126 50.8947 12.0381 50.6475L11.9062 50.542C11.5844 50.2872 11.1825 50.0642 10.6982 49.876L10.4854 49.7979C10.1904 49.6942 9.88353 49.59 9.56445 49.4863L8.57129 49.1758C7.95967 48.9909 7.38468 48.7496 6.84668 48.4521L6.61816 48.3213C6.00746 47.9582 5.49596 47.4789 5.08398 46.8857L5.08203 46.8828C4.6768 46.2748 4.48145 45.4825 4.48145 44.5195C4.48151 43.5883 4.66089 42.7643 5.02539 42.0518L5.02637 42.0488L5.17383 41.79C5.52942 41.1974 5.97397 40.6921 6.50684 40.2744L6.50781 40.2725L6.74609 40.0996C7.23063 39.7658 7.76557 39.5023 8.34961 39.3076L8.64551 39.2158C9.44322 38.9719 10.2655 38.8496 11.1113 38.8496Z" fill="black" stroke="black" stroke-width="0.3"/>
<path id="right_o" d="M119.079 60.7307C120.46 60.7307 121.579 61.85 121.579 63.2307C121.579 64.6114 120.46 65.7307 119.079 65.7307C117.698 65.7307 116.579 64.6114 116.579 63.2307C116.579 61.85 117.698 60.7307 119.079 60.7307Z" fill="black" stroke="black"/>
<path d="M23.8328 56.1614C23.8462 56.1614 23.8528 55.4235 23.8356 54.188C23.8159 55.4233 23.8194 56.1614 23.8328 56.1614Z" fill="black"/>
<path id="waveform" d="M106.579 75.5L106.579 77.75L106.579 75.5ZM80.5791 76.5L82.0333 74.7831L82.0333 74.7831L80.5791 76.5ZM118.929 64.745C120.169 64.8276 121.241 63.8895 121.324 62.6496C121.407 61.4097 120.469 60.3376 119.229 60.255L118.929 64.745ZM3.62966 27.6063C2.53078 27.0261 1.16962 27.4466 0.589419 28.5454C0.00921416 29.6443 0.429677 31.0055 1.52855 31.5857L3.62966 27.6063ZM58.0779 15.5L58.0779 17.75L58.0779 17.75L58.0779 15.5ZM23.8328 56.1614L23.8328 58.4114L23.8328 56.1614ZM17.6164 29.596L19.4269 30.9319L19.4269 30.9319L17.6164 29.596ZM29.1612 29.596L31.0483 28.3706L31.0483 28.3706L29.1612 29.596ZM106.579 75.5L106.579 73.25C106.492 73.25 106.11 73.2226 105.375 72.1754C104.656 71.1522 104.006 69.7445 103.195 68.035C102.44 66.4458 101.539 64.5851 100.387 63.1326C99.2111 61.651 97.4964 60.25 95.0791 60.25L95.0791 62.5L95.0791 64.75C95.548 64.75 96.1033 64.9739 96.8618 65.9298C97.6435 66.9148 98.3411 68.3041 99.1295 69.9649C99.8609 71.5054 100.699 73.3477 101.692 74.762C102.669 76.1523 104.224 77.75 106.579 77.75L106.579 75.5ZM95.0791 62.5L95.0791 60.25C93.6522 60.25 92.4894 60.8825 91.6066 61.6567C90.7452 62.4122 90.0403 63.3938 89.4505 64.3718C88.2982 66.2828 87.231 68.819 86.2954 70.7928C85.2544 72.9893 84.3914 74.4572 83.5931 75.1198C83.2707 75.3874 83.1265 75.3791 83.0924 75.3778C83.0244 75.3751 82.6869 75.3367 82.0333 74.7831L80.5791 76.5L79.1249 78.2169C80.2474 79.1677 81.5147 79.8199 82.9179 79.8744C84.355 79.9301 85.5482 79.3452 86.4672 78.5824C88.1518 77.1841 89.3875 74.7759 90.3618 72.7202C91.4417 70.4418 92.3066 68.3498 93.3041 66.6955C93.7893 65.8909 94.2137 65.3557 94.5737 65.0399C94.9123 64.743 95.0629 64.75 95.0791 64.75L95.0791 62.5ZM80.5791 76.5L82.0333 74.7831C81.6467 74.4556 81.1133 73.6362 80.6111 72.0022C80.1295 70.4353 79.7617 68.4087 79.4886 66.0192C78.9427 61.2431 78.8097 55.3533 78.7464 49.4714C78.6838 43.6518 78.69 37.8084 78.4017 33.3244C78.2579 31.0889 78.0347 29.0665 77.6572 27.4949C77.4693 26.7127 77.219 25.9364 76.8596 25.2697C76.5152 24.6306 75.9269 23.8265 74.9339 23.4187L74.0792 25.5L73.2244 27.5813C72.842 27.4243 72.7832 27.191 72.8984 27.4047C72.9987 27.5909 73.1383 27.9494 73.2816 28.546C73.5666 29.7322 73.7714 31.4434 73.9109 33.6131C74.1891 37.9394 74.1829 43.5924 74.2467 49.5198C74.3098 55.385 74.442 61.493 75.0177 66.5302C75.3054 69.0473 75.7125 71.3812 76.3097 73.3242C76.8862 75.2001 77.7354 77.04 79.1249 78.2169L80.5791 76.5ZM74.0792 25.5L74.9339 23.4187C73.1835 22.6998 71.5042 22.7404 70.0809 23.6913C68.8984 24.4814 68.1971 25.7377 67.7766 26.5004C67.2375 27.478 66.9978 27.9534 66.7004 28.2653C66.6005 28.3701 66.582 28.3539 66.6421 28.3334C66.7172 28.3077 66.7218 28.3388 66.5739 28.3053L66.0779 30.5L65.5819 32.6946C66.4339 32.8872 67.286 32.8689 68.0975 32.5915C68.894 32.3193 69.5009 31.8491 69.957 31.3708C70.7717 30.5166 71.3665 29.3094 71.7172 28.6732C72.1864 27.8223 72.4303 27.5336 72.5808 27.433C72.5987 27.4211 72.5911 27.4241 72.6094 27.4232C72.6515 27.4211 72.8381 27.4227 73.2244 27.5813L74.0792 25.5ZM106.579 75.5L106.579 77.75C109.005 77.75 110.515 76.0284 111.426 74.6218C112.348 73.1999 113.163 71.2849 113.88 69.7796C114.666 68.1286 115.407 66.7843 116.276 65.8745C117.061 65.0523 117.857 64.6735 118.929 64.745L119.079 62.5L119.229 60.255C116.551 60.0765 114.52 61.1977 113.022 62.7661C111.607 64.2469 110.608 66.1839 109.817 67.8453C108.956 69.6526 108.358 71.0814 107.65 72.175C106.931 73.2841 106.595 73.25 106.579 73.25L106.579 75.5ZM10.0779 16L10.0779 13.75C8.66647 13.75 7.66179 14.5263 7.04194 15.3412C6.46366 16.1016 6.09857 17.0339 5.84116 17.8726C5.3292 19.5407 4.99781 21.7298 4.67762 23.4827C4.32008 25.44 3.97918 26.8356 3.55339 27.5833C3.35926 27.9243 3.31994 27.8132 3.55172 27.7295C3.85049 27.6215 3.955 27.7781 3.62966 27.6063L2.5791 29.596L1.52855 31.5857C2.57821 32.1399 3.8233 32.4161 5.08099 31.9616C6.27169 31.5314 7.00961 30.6077 7.46381 29.8101C8.33467 28.2809 8.77471 26.096 9.10437 24.2913C9.47137 22.2822 9.73342 20.5278 10.1431 19.1929C10.3465 18.5301 10.5243 18.1961 10.6237 18.0654C10.6815 17.9894 10.4893 18.25 10.0779 18.25L10.0779 16ZM66.0779 30.5L66.5739 28.3053C66.7153 28.3373 66.6767 28.3953 66.4831 28.1613C66.284 27.9207 66.04 27.5121 65.7688 26.8835C65.2198 25.6111 64.7627 23.9387 64.2474 22.0645C63.762 20.2992 63.2132 18.3068 62.4908 16.763C62.1274 15.9864 61.6495 15.1632 60.99 14.5095C60.2946 13.8202 59.3174 13.25 58.0779 13.25L58.0779 15.5L58.0779 17.75C57.8384 17.75 57.7361 17.6203 57.822 17.7054C57.9438 17.8261 58.1534 18.1112 58.415 18.6703C58.9425 19.7977 59.3938 21.3858 59.9084 23.2575C60.3931 25.0203 60.9359 27.0414 61.637 28.6662C61.9908 29.4862 62.4343 30.3272 63.0164 31.0305C63.604 31.7405 64.4405 32.4367 65.5819 32.6946L66.0779 30.5ZM58.0779 15.5L58.0779 13.25C56.7884 13.25 55.8003 13.8805 55.1224 14.5887C54.4758 15.2643 54.0033 16.1128 53.6397 16.911C52.9181 18.4949 52.3339 20.5664 51.7978 22.3535C51.2244 24.2648 50.6904 25.9131 50.0549 27.0804C49.743 27.6532 49.4767 27.9742 49.2855 28.1355C49.1315 28.2654 49.0831 28.25 49.0779 28.25L49.0779 30.5L49.0779 32.75C51.6441 32.75 53.1587 30.7905 54.0071 29.2321C54.9029 27.5869 55.5564 25.4852 56.108 23.6465C56.6969 21.6836 57.1751 20.0051 57.7348 18.7765C58.0118 18.1684 58.2346 17.8451 58.3732 17.7003C58.4805 17.5883 58.3674 17.75 58.0779 17.75L58.0779 15.5ZM49.0779 30.5L49.0779 28.25C49.6097 28.25 49.6506 28.6296 49.2967 28.0878C48.9798 27.6027 48.6196 26.7689 48.2441 25.5437C47.5002 23.117 46.8875 19.8235 46.2474 16.343C45.6237 12.9516 44.9722 9.37278 44.1524 6.64851C43.7461 5.2983 43.2504 3.98683 42.601 2.97034C41.9951 2.02184 40.8704 0.75 39.0779 0.75L39.0779 3L39.0779 5.25C38.5066 5.25 38.454 4.83754 38.8088 5.39294C39.1201 5.88035 39.4738 6.71733 39.8433 7.94524C40.5752 10.3772 41.1809 13.6734 41.8217 17.157C42.446 20.5515 43.105 24.133 43.9417 26.8625C44.3564 28.2155 44.8638 29.5301 45.5293 30.5489C46.1578 31.511 47.296 32.75 49.0779 32.75L49.0779 30.5ZM23.8328 56.1614L23.8328 58.4114C24.5293 58.4114 25.0338 58.0995 25.3113 57.8576C25.5731 57.6295 25.7205 57.3939 25.7884 57.2748C25.9244 57.0361 25.9834 56.8278 26.0003 56.7676C26.044 56.6121 26.0608 56.4853 26.0647 56.456C26.0768 56.3672 26.0815 56.293 26.083 56.2687C26.0872 56.2028 26.0893 56.1351 26.0906 56.0834C26.0934 55.971 26.095 55.8214 26.0956 55.6458C26.0969 55.2902 26.0941 54.7832 26.0854 54.1567L23.8356 54.188L21.5858 54.2192C21.5943 54.8282 21.5968 55.308 21.5957 55.6302C21.5951 55.7936 21.5936 55.9057 21.592 55.9703C21.5911 56.007 21.5906 56.0067 21.5919 55.9859C21.592 55.9842 21.5953 55.9271 21.6058 55.8497C21.609 55.8261 21.625 55.7036 21.6679 55.551C21.6844 55.4921 21.7429 55.285 21.8786 55.0469C21.9462 54.9283 22.0934 54.6929 22.355 54.465C22.6323 54.2233 23.1366 53.9114 23.8328 53.9114L23.8328 56.1614ZM23.8356 54.188L26.0854 54.1567C26.0347 50.5127 25.7785 42.4819 24.8638 36.2071C24.4222 33.1778 23.7774 30.1497 22.7121 28.3167C22.212 27.4562 21.1774 26.1063 19.4012 26.0831C17.7139 26.0611 16.5322 27.2758 15.806 28.26L17.6164 29.596L19.4269 30.9319C20.0001 30.1552 19.9842 30.5911 19.3424 30.5827C18.6119 30.5732 18.5027 30.0294 18.8215 30.5778C19.3938 31.5626 19.96 33.7632 20.4109 36.8562C21.2811 42.8257 21.5357 50.6128 21.5858 54.2192L23.8356 54.188ZM17.6164 29.596L15.806 28.26C15.2913 28.9576 15.3329 28.5612 15.9645 28.5C16.8997 28.4093 17.228 29.1341 17.0513 28.8429C16.9193 28.6254 16.727 28.1559 16.5046 27.3442C16.2927 26.5702 16.0946 25.6454 15.8884 24.6136C15.4927 22.6336 15.06 20.1915 14.4657 18.2971C14.1696 17.3533 13.7772 16.3498 13.212 15.5416C12.6495 14.7373 11.6332 13.75 10.0779 13.75L10.0779 16L10.0779 18.25C9.52258 18.25 9.35303 17.8756 9.52425 18.1205C9.69269 18.3613 9.92075 18.8431 10.172 19.6441C10.6724 21.2392 11.0418 23.3243 11.4757 25.4955C11.6843 26.5392 11.9079 27.596 12.1645 28.5329C12.4107 29.432 12.7339 30.4025 13.2043 31.1776C13.63 31.8789 14.6476 33.1488 16.3989 32.9789C17.8467 32.8385 18.8315 31.7388 19.4269 30.9319L17.6164 29.596ZM39.0779 3L39.0779 0.75C38.0593 0.75 37.2543 1.20991 36.6949 1.72278C36.158 2.21496 35.7601 2.8281 35.4568 3.40718C34.8496 4.56621 34.3729 6.07785 33.9731 7.66314C33.1669 10.8593 32.5197 15.0115 31.8999 18.7507C31.2583 22.6209 30.6598 25.944 29.9694 27.8459C29.8034 28.3034 29.6648 28.5825 29.5711 28.7302C29.4535 28.9158 29.5242 28.7123 29.8782 28.5555C30.3987 28.325 30.9175 28.4482 31.1864 28.6105C31.3401 28.7033 31.277 28.7229 31.0483 28.3706L29.1612 29.596L27.2742 30.8214C27.656 31.4093 28.1664 32.0439 28.8612 32.4632C29.6713 32.9521 30.699 33.1136 31.7005 32.67C32.5355 32.3002 33.0595 31.6323 33.372 31.1392C33.7085 30.6083 33.9769 29.9943 34.1994 29.3813C35.0632 27.0016 35.7228 23.2057 36.3393 19.4866C36.9775 15.6366 37.5884 11.7295 38.3364 8.76362C38.7136 7.26789 39.088 6.17284 39.4429 5.49543C39.5262 5.33639 39.5978 5.2214 39.6543 5.14194C39.7118 5.06119 39.7413 5.03482 39.7358 5.03987C39.7175 5.05663 39.4861 5.25 39.0779 5.25L39.0779 3ZM29.1612 29.596L31.0483 28.3706C30.705 27.842 30.2859 27.3163 29.7622 26.9144C29.2202 26.4983 28.4488 26.1324 27.5145 26.2095C26.591 26.2857 25.9093 26.7622 25.4702 27.2113C25.0404 27.6508 24.7308 28.1722 24.5009 28.6477C23.628 30.4538 23.0786 33.4099 22.6932 36.4203C21.8984 42.6282 21.6435 50.5381 21.5859 54.1521L23.8356 54.188L26.0853 54.2238C26.1423 50.6468 26.395 42.9416 27.1567 36.9918C27.5496 33.9234 28.0407 31.665 28.5525 30.606C28.6689 30.3652 28.727 30.3172 28.6877 30.3573C28.6391 30.4071 28.3707 30.6542 27.8845 30.6943C27.3876 30.7353 27.0777 30.5266 27.0224 30.4842C26.9855 30.4558 27.0786 30.5203 27.2742 30.8214L29.1612 29.596ZM23.8356 54.188L21.5859 54.1521C21.5759 54.7776 21.5717 55.2838 21.5718 55.6386C21.5719 55.8138 21.573 55.9631 21.5754 56.0753C21.5765 56.1269 21.5783 56.1946 21.5823 56.2606C21.5837 56.2849 21.5882 56.3596 21.6 56.4489C21.6039 56.4783 21.6204 56.6061 21.6641 56.7629C21.681 56.8237 21.74 57.0336 21.8769 57.2742C21.9453 57.3943 22.0936 57.631 22.3568 57.8597C22.6367 58.1029 23.1404 58.4114 23.8328 58.4114L23.8328 56.1614L23.8328 53.9114C24.5251 53.9114 25.0286 54.2199 25.3083 54.4628C25.5713 54.6914 25.7193 54.9278 25.7875 55.0476C25.9241 55.2875 25.9826 55.4963 25.9991 55.5557C26.042 55.7096 26.0577 55.833 26.0609 55.8567C26.0712 55.9347 26.0743 55.9923 26.0744 55.994C26.0756 56.0148 26.0751 56.0152 26.0743 55.9783C26.0729 55.9135 26.0719 55.8011 26.0718 55.6373C26.0717 55.3142 26.0756 54.8337 26.0853 54.2238L23.8356 54.188Z" fill="black"/>
<path d="M3 26.499C4.38071 26.499 5.5 27.6183 5.5 28.999C5.5 30.3797 4.38071 31.499 3 31.499C1.61929 31.499 0.5 30.3797 0.5 28.999C0.5 27.6183 1.61929 26.499 3 26.499Z" fill="black" stroke="black"/>
</svg>
